<svg width="43" height="36" viewBox="0 0 43 36" fill="none" xmlns="http://www.w3.org/2000/svg">
<path d="M43 25.5076C43 31.0304 38.5228 35.5076 33 35.5076L29 35.5076C23.4771 35.5076 19 31.0304 19 25.5076C19 19.9847 23.4772 15.5076 29 15.5076L33 15.5076C38.5229 15.5076 43 19.9847 43 25.5076Z" fill="#40F06C"/>
<path d="M17.1194 3.02985C18.1293 -1.00996 23.8706 -1.00995 24.8805 3.02986L31.7574 30.5374C32.3886 33.062 30.4791 35.5076 27.8769 35.5076H14.1231C11.5208 35.5076 9.61135 33.062 10.2425 30.5374L17.1194 3.02985Z" fill="#32C66B"/>
<path d="M33 35.5076H9L15.5 9.50757H26.5L33 35.5076Z" fill="#32C66B"/>
<path d="M0 23.5076C0 16.8802 5.37258 11.5076 12 11.5076C18.6274 11.5076 24 16.8802 24 23.5076V35.5076H8C3.58172 35.5076 0 31.9258 0 27.5076V23.5076Z" fill="#BDEE63"/>
</svg>
